# xmcd
#
# Track frame offsets: 
#        300
#        18009
#        33709
#        54101
#        72632
#        88832
#        105163
#        120248
#        141677
#        165114
#        179278
#        193842
#        215188
#        230976
#
# Disc length: 3235 seconds
#
# Revision: 2
# Processed by: cddbd v1.5.2PL0 Copyright (c) Steve Scherf et al.
# Submitted via: ExactAudioCopy v1.0b1
#
DISCID=c70c9f0e
DTITLE=A.C. Reed - Junk Food
DYEAR=1900
DGENRE=Soul Blues
TTITLE0=Junk Food
TTITLE1=Big Women
TTITLE2=Broke Music (with Albert Collins)
TTITLE3=I Got Mad (with Albert Collins)
TTITLE4=The President Plays
TTITLE5=Give It Up (Smoking)
TTITLE6=Florine
TTITLE7=Lonely Man
TTITLE8=Roadhouse Blues
TTITLE9=2 Women In A Pick-Up
TTITLE10=Party With Y'All
TTITLE11=You're Going To Miss Me
TTITLE12=Fed Up
TTITLE13=Last Time Around
EXTD=
EXTT0=
EXTT1=
EXTT2=
EXTT3=
EXTT4=
EXTT5=
EXTT6=
EXTT7=
EXTT8=
EXTT9=
EXTT10=
EXTT11=
EXTT12=
EXTT13=
PLAYORDER=
